<svg xmlns="http://www.w3.org/2000/svg" viewBox="0 0 64 64" id="archery"><path fill="#CCC" d="m22.041 40.727 1.923.55-4.002 13.999-1.923-.55zM41.962 40.724l4 13.999-1.923.55-4-14zM52.378 43.378V49l-4.216-4.216v-5.622zM52.378 43.378H58l-4.216-4.216h-5.622z"></path><path fill="#FE4938" d="M32 2c-11.58 0-21 9.42-21 21s9.42 21 21 21 21-9.42 21-21S43.58 2 32 2z"></path><path fill="#FFF" d="M32 7c-8.823 0-16 7.177-16 16s7.177 16 16 16 16-7.177 16-16S40.823 7 32 7z"></path><path fill="#FE4938" d="M32 12c-6.066 0-11 4.934-11 11s4.934 11 11 11 11-4.934 11-11-4.935-11-11-11z"></path><path fill="#FFF" d="M32 17c-3.308 0-6 2.692-6 6s2.692 6 6 6 6-2.692 6-6-2.692-6-6-6z"></path><path fill="#454C54" d="M48 54H16a1 1 0 0 0-1 1v6a1 1 0 0 0 1 1h32a1 1 0 0 0 1-1v-6a1 1 0 0 0-1-1zM51.676 43.676a.997.997 0 0 1-.707-.293L31.293 23.707a.999.999 0 1 1 1.414-1.414l19.676 19.676a.999.999 0 0 1-.707 1.707z"></path></svg>