<svg xmlns="http://www.w3.org/2000/svg" viewBox="0 0 512 512" id="archery-arrows"><path d="m503.01 423.229-76.746-4.828-14.16-14.167 59.758 3.759.941-14.971-76.73-4.827-5.119-5.121-9.048-9.047 59.747 3.758.941-14.971-76.727-4.827L264.37 256.491l144.206-144.205v80.842L500.024 10.23l-182.897 91.45h80.842l-58.793 58.792c-2.891-1.312-6.419-.681-8.656 1.798a7.51 7.51 0 0 0-1.27 8.128l-75.487 75.486-72.94-72.94c.13-.102.262-.203.387-.315a7.499 7.499 0 0 0 .58-10.59c-2.77-3.09-7.51-3.34-10.6-.58a7.582 7.582 0 0 0-.889.962l-56.252-56.252h80.843L11.993 14.721l91.449 182.898v-80.842l139.714 139.715-92.702 92.701-4.285 4.284-76.764 4.829.941 14.971 59.779-3.76-14.173 14.169-76.756 4.829.941 14.971 59.771-3.76-14.172 14.168-76.746 4.827.941 14.971 71.085-4.472-4.472 71.086 14.971.941 4.828-76.745 14.169-14.162-3.76 59.758 14.971.941 4.827-76.731 5.121-5.119 9.048-9.048-3.758 59.749 14.971.941 4.826-76.728 13.994-13.994c.083.083.161.169.249.249a7.468 7.468 0 0 0 5.01 1.93 7.492 7.492 0 0 0 5.332-12.77l72.422-72.421 75.119 75.119a7.493 7.493 0 0 0 1.437 7.663 7.472 7.472 0 0 0 8.23 2.004l12.407 12.407 4.284 4.285 4.828 76.765 14.971-.941-3.76-59.78 14.168 14.172 4.829 76.756 14.971-.941-3.76-59.771 14.169 14.173 4.828 76.748 14.971-.941-4.472-71.086 71.085 4.472.94-14.972zM466.483 43.771l-42.907 85.815V86.679h-42.908l85.815-42.908zM88.442 134.078 45.534 48.262l85.817 42.908H88.442v42.908z"></path><path d="M267.649 367.4a7.506 7.506 0 0 0-6.689 8.23 7.502 7.502 0 0 0 8.229 6.689 7.492 7.492 0 0 0 6.69-8.229c-.419-4.12-4.11-7.11-8.23-6.69zm22.9-4.83a7.502 7.502 0 0 0 2.309 14.64 7.39 7.39 0 0 0 2.311-.37c3.95-1.28 6.11-5.51 4.83-9.45a7.503 7.503 0 0 0-9.45-4.82zm21.38-9.51.01-.01a7.508 7.508 0 0 0-2.75 10.25 7.49 7.49 0 0 0 6.5 3.75 7.448 7.448 0 0 0 3.75-1.01c3.58-2.07 4.81-6.66 2.74-10.24a7.493 7.493 0 0 0-10.25-2.74zm-90.589 9.471c-3.94-1.281-8.17.88-9.46 4.819-1.28 3.93.88 8.17 4.82 9.45.77.25 1.55.37 2.32.371 3.16 0 6.1-2.021 7.13-5.18 1.28-3.94-.87-8.181-4.81-9.46zm22.89 4.859a7.5 7.5 0 1 0-1.56 14.92 7.5 7.5 0 0 0 1.56-14.92zm-54.3-211.26a7.501 7.501 0 0 0 6.51 3.76c1.27 0 2.55-.33 3.73-1.01a7.505 7.505 0 0 0 2.76-10.24 7.505 7.505 0 0 0-10.25-2.75c-3.59 2.06-4.82 6.65-2.75 10.24zm122.21 2.93c1.19.69 2.48 1.02 3.76 1.02 2.58 0 5.1-1.34 6.49-3.74a7.5 7.5 0 0 0-2.72-10.25 7.5 7.5 0 0 0-10.25 2.72c-2.08 3.59-.86 8.18 2.72 10.25zm-44.241-14.44c.261.03.531.05.801.05a7.5 7.5 0 0 0 7.439-6.72 7.486 7.486 0 0 0-6.67-8.24 7.487 7.487 0 0 0-8.24 6.67 7.488 7.488 0 0 0 6.67 8.24zm22.881 4.88c.78.26 1.56.38 2.329.38a7.5 7.5 0 0 0 7.131-5.18 7.514 7.514 0 0 0-4.801-9.46 7.511 7.511 0 0 0-9.46 4.81c-1.29 3.93.861 8.17 4.801 9.45zm-47.08-4.87c.26 0 .51-.02.77-.04 4.12-.43 7.12-4.11 6.7-8.23a7.499 7.499 0 0 0-8.22-6.7c-4.12.42-7.12 4.11-6.7 8.23.39 3.86 3.65 6.74 7.45 6.74zm-24.44 5.13c.76 0 1.54-.12 2.31-.37 3.94-1.27 6.1-5.5 4.83-9.44s-5.5-6.11-9.44-4.83a7.488 7.488 0 0 0-4.83 9.44c1.02 3.17 3.96 5.19 7.13 5.2zM199.96 353h.01a7.497 7.497 0 0 0-10.25 2.729c-2.08 3.58-.86 8.17 2.73 10.25a7.49 7.49 0 0 0 10.25-2.739c2.07-3.58.85-8.171-2.74-10.24zm148.25-20.62a7.47 7.47 0 0 0 4.41 1.439 7.471 7.471 0 0 0 6.069-3.079 7.507 7.507 0 0 0-1.64-10.48 7.507 7.507 0 0 0-10.48 1.64c-2.439 3.35-1.71 8.04 1.641 10.48zm.16-152.57a7.5 7.5 0 0 0-1.66 10.48 7.47 7.47 0 0 0 6.07 3.09 7.43 7.43 0 0 0 4.399-1.43c3.351-2.43 4.101-7.12 1.67-10.47a7.503 7.503 0 0 0-10.479-1.67zM146.8 312.099c1.02 0 2.06-.21 3.05-.649 3.78-1.69 5.48-6.12 3.8-9.9a7.499 7.499 0 0 0-9.91-3.8c-3.78 1.689-5.48 6.12-3.79 9.899a7.493 7.493 0 0 0 6.85 4.45zm233.42-29.568c.86-4.05-1.72-8.04-5.77-8.9a7.508 7.508 0 0 0-8.9 5.78c-.861 4.049 1.73 8.029 5.78 8.899.52.11 1.05.16 1.56.16 3.47 0 6.58-2.41 7.33-5.939zm-15.071 29.689a7.524 7.524 0 0 0 6.851-4.439 7.503 7.503 0 0 0-13.7-6.12c-1.69 3.779.01 8.21 3.79 9.899.99.45 2.03.66 3.059.66zM383 256.14c0-4.14-3.35-7.5-7.49-7.51a7.498 7.498 0 0 0-7.51 7.5c-.01 4.14 3.349 7.5 7.49 7.5 4.14 0 7.5-3.35 7.51-7.49zm-20.79-55.47a7.505 7.505 0 0 0-3.811 9.9 7.52 7.52 0 0 0 6.86 4.45c1.02 0 2.05-.21 3.04-.65a7.488 7.488 0 0 0 3.81-9.89 7.487 7.487 0 0 0-9.899-3.81zm3.39 32.16a7.495 7.495 0 0 0 8.88 5.8 7.497 7.497 0 0 0 5.801-8.88 7.498 7.498 0 0 0-8.881-5.8 7.497 7.497 0 0 0-5.8 8.88zM129 255.72v.28c0 4.14 3.36 7.5 7.5 7.5s7.5-3.36 7.5-7.5v-.25c.01-4.14-3.34-7.51-7.48-7.52-4.15 0-7.51 3.35-7.52 7.49zm34.87-76.21a7.495 7.495 0 0 0-10.47 1.63 7.5 7.5 0 0 0 6.04 11.93c2.32 0 4.6-1.06 6.06-3.07a7.5 7.5 0 0 0-1.63-10.49zm-17.45 99.78a7.496 7.496 0 0 0-8.89-5.79 7.499 7.499 0 0 0-5.78 8.89c.74 3.53 3.86 5.95 7.33 5.95.51 0 1.03-.05 1.56-.16 4.05-.861 6.64-4.84 5.78-8.89zm12.89 54.439c1.53 0 3.07-.469 4.4-1.439a7.51 7.51 0 0 0 1.66-10.48 7.5 7.5 0 0 0-10.48-1.649 7.499 7.499 0 0 0-1.65 10.479 7.498 7.498 0 0 0 6.07 3.089zm-27.5-104.399c-.87 4.05 1.71 8.04 5.76 8.9.53.12 1.06.17 1.58.17 3.46 0 6.57-2.41 7.32-5.93.87-4.05-1.71-8.04-5.76-8.9-4.05-.87-8.04 1.71-8.9 5.76zm8.25-25.24c-1.7 3.78 0 8.22 3.77 9.91 1 .45 2.04.66 3.07.66 2.86 0 5.6-1.65 6.85-4.43 1.69-3.78 0-8.22-3.78-9.91a7.489 7.489 0 0 0-9.91 3.77z"></path></svg>