<svg xmlns="http://www.w3.org/2000/svg" viewBox="0 0 64 64" id="aunty"><path fill="#6791ad" d="M38.99 6.48C38.71 2.86 35.69 0 32 0c-3.7 0-6.72 2.86-7 6.48 2.04-.89 4.39-1.38 6.99-1.38 2.61 0 4.95.49 7 1.38z"></path><path fill="#92b6cf" d="M20.24 23.17c0-.3.13-.59.36-.78.24-.2.55-.28.85-.23 6.94 1.23 13.58-.42 19.73-4.89.31-.23.73-.26 1.07-.08.35.18.57.53.57.92v9.79c0 .2-.02.38-.03.57 1.59-2.5 2.47-5.46 2.47-8.61C45.26 11.1 38.6 7.17 32 7.17s-13.24 3.92-13.24 12.69c0 2.43.52 4.77 1.5 6.86v-3.55z"></path><path fill="#ef6183" d="M50.48 47.23c-3.13-1.17-6.8-2.12-10.29-2.66-.91 4.07-4.27 7.03-8.19 7.03-3.82 0-7.15-2.85-8.14-6.78-3.24.56-6.62 1.41-10.04 2.6-4.16 1.46-6.96 5.54-6.96 10.18V64h50.29v-6.72c0-4.54-2.69-8.58-6.67-10.05z"></path><path fill="#fecc96" d="M31.53 39.18c-1.23 0-2.44-.21-3.57-.59-.14 2.37-.79 4.23-1.98 5.62-.04.04-.08.06-.11.09.75 3.03 3.27 5.22 6.14 5.22 2.94 0 5.48-2.29 6.17-5.44-.05-.04-.12-.08-.17-.14-1.36-1.81-1.72-4.18-1.8-5.78-1.43.66-3.03 1.02-4.68 1.02zm8.13-6.98c.02-.06.06-.12.09-.19.08-.15.19-.31.25-.47.5-1.16.75-2.37.75-3.64v-7.82c-5.8 3.73-11.99 5.17-18.45 4.31v3.51c0 .79.1 1.6.3 2.37.01.02.01.04.02.06.4 1.53 1.23 2.95 2.37 4.1a9.218 9.218 0 0 0 6.52 2.69 9.21 9.21 0 0 0 8.15-4.92z"></path></svg>