<svg xmlns="http://www.w3.org/2000/svg" viewBox="0 0 512 512" id="dad"><path fill="#a97c50" d="M332.63,145.35c-16.77,3.15-94.47,17.26-140,7.06-19.23-9.79-30.29-28.78-28.25-47.32.14-1.34,2.76-22.34,18.7-30.35,18.54-9.32,34.56,9.2,72.67,20,50.84,14.34,75.7-3.88,89.39,12.78,17.9,21.78-5.62,64.91-12.5,80.75Z"></path><path fill="#231f20" d="M332.63,194.72a6.47,6.47,0,0,1-6.5-6.5V153.14c-32,5.65-95,14.55-134.93,5.61a6.28,6.28,0,0,1-1.52-.55c-21.35-10.86-34.12-32.49-31.78-53.82.29-2.63,3.37-26,22.26-35.45C194.39,61.77,207,67.62,223,75c9.55,4.42,20.38,9.44,34.48,13.41,24.2,6.83,41.95,6,56.21,5.3,15.35-.73,27.47-1.3,36.44,9.61,18.47,22.48.77,60.73-8.74,81.28-1.11,2.4-2.07,4.48-2.82,6.19A6.5,6.5,0,0,1,332.63,194.72Zm0-55.87a6.49,6.49,0,0,1,6.5,6.5V156.7c5.84-16.16,9.64-34.57,1-45.1-4.63-5.64-11.25-5.57-25.78-4.88S280.21,108.34,254,101c-15.09-4.26-26.91-9.73-36.41-14.13-15.49-7.17-23.31-10.43-31.56-6.28-13,6.52-15.15,25.07-15.17,25.26-1.74,15.76,7.9,31.92,24,40.45C236,155.11,304,144.13,331.43,139A6.09,6.09,0,0,1,332.63,138.85Z"></path><path fill="#f2c79e" d="M304.46,273.23a69.88,69.88,0,0,0,28.17-56.13V145.35c-16.77,3.15-94.47,17.26-140,7.06h0V217.1a69.88,69.88,0,0,0,28.17,56.13,70,70,0,0,0,83.67,0Z"></path><path fill="#231f20" d="M262.63,293.6a77.18,77.18,0,0,1-45.72-15.16,75.86,75.86,0,0,1-30.78-61.34V152.41a6.49,6.49,0,0,1,7.92-6.34c41,9.19,109.74-1.91,137.38-7.11a6.49,6.49,0,0,1,7.7,6.39V217.1a75.89,75.89,0,0,1-30.78,61.34h0A77.11,77.11,0,0,1,262.63,293.6Zm-63.5-133.35V217.1A63,63,0,0,0,224.68,268a63.52,63.52,0,0,0,75.89,0h0a63,63,0,0,0,25.56-50.92v-64C296.16,158.43,239,166.56,199.13,160.25Zm105.33,113h0Z"></path><path fill="#231f20" d="M276.58,244.25a23.73,23.73,0,0,1-3.47-.25,26.42,26.42,0,0,1-10.48-3.61A26.54,26.54,0,0,1,252.15,244c-7.88,1.13-16.17-1.65-23.33-7.83a6.5,6.5,0,1,1,8.5-9.84c3,2.61,7.72,5.55,13,4.8,4.82-.69,6.42-2.42,6.89-3.13a6.5,6.5,0,0,1,10.88,0c.46.71,2.06,2.44,6.89,3.13,5.26.76,10-2.19,13-4.8a6.5,6.5,0,1,1,8.49,9.84C290.31,241.45,283.38,244.25,276.58,244.25Z"></path><path fill="#bcbec0" d="M415.82,435.8v-26a103,103,0,0,0-103-103h-8.38v-.08c-7.11,3.72-21.85,9.23-41.57,9.28-20,.06-35-5.55-42.1-9.28v.08h-8.38a103,103,0,0,0-103,103v26"></path><path fill="#231f20" d="M415.82 442.3a6.5 6.5 0 0 1-6.5-6.5v-26a96.59 96.59 0 0 0-96.48-96.47h-7c-6.75 3.28-21.79 9.14-42.94 9.2h-.33c-21.24 0-36.37-5.9-43.18-9.2h-7a96.58 96.58 0 0 0-96.47 96.47v26a6.5 6.5 0 0 1-13 0v-26A109.6 109.6 0 0 1 212.41 300.29H220a6.46 6.46 0 0 1 3.83.66c3.85 2 18 8.54 38.78 8.54h.29c20.76-.06 34.78-6.55 38.58-8.54a6.5 6.5 0 0 1 4-.66h7.39A109.6 109.6 0 0 1 422.32 409.76v26A6.5 6.5 0 0 1 415.82 442.3zM277.19 266.5H248.07a6.5 6.5 0 0 1 0-13h29.12a6.5 6.5 0 1 1 0 13zM274.88 196.5a6.5 6.5 0 0 1-3.49-12 29.35 29.35 0 0 1 15.4-4.56h.3a29.26 29.26 0 0 1 15.68 4.56 6.5 6.5 0 0 1-7 11 16.18 16.18 0 0 0-8.88-2.54 16.55 16.55 0 0 0-8.56 2.54A6.53 6.53 0 0 1 274.88 196.5zM226 196.5a6.5 6.5 0 0 1-3.49-12 29.27 29.27 0 0 1 31.38 0 6.5 6.5 0 1 1-7 11A16.36 16.36 0 0 0 238 193a16.55 16.55 0 0 0-8.56 2.54A6.5 6.5 0 0 1 226 196.5z"></path><path fill="#f2c79e" d="M220.79,306.71a98.88,98.88,0,0,0,83.67,0V273.23a70.05,70.05,0,0,1-83.67,0Z"></path><path fill="#231f20" d="M262.6,322.49h-1.17a106.27,106.27,0,0,1-43.38-9.89,6.49,6.49,0,0,1-3.76-5.89V273.23A6.5,6.5,0,0,1,224.67,268a63.55,63.55,0,0,0,75.92,0A6.5,6.5,0,0,1,311,273.23v33.48a6.48,6.48,0,0,1-3.75,5.89A106.26,106.26,0,0,1,262.6,322.49Zm-35.31-20a92.37,92.37,0,0,0,70.67,0V284.91a76.19,76.19,0,0,1-70.67,0Z"></path></svg>