<svg xmlns="http://www.w3.org/2000/svg" viewBox="0 0 512 512" id="student-girl"><defs><linearGradient id="a" x1="141.96" x2="366.99" y1="357.08" y2="357.08" gradientUnits="userSpaceOnUse"><stop offset="0" stop-color="#cacfdd"></stop><stop offset="1" stop-color="#eef0f1"></stop></linearGradient></defs><g data-name="Student Girl"><path fill="#dee1ec" d="M463.47,388.87v16.92a48,48,0,0,1-47.94,47.94H371V399.15h25.9a5.63,5.63,0,0,0,4.62-8.85c-35.73-50.8-33-47.22-34.54-48.44a10,10,0,0,0-16.23,7.73V466.26H158V453.75h29a16.3,16.3,0,0,0,16.3-16.3V415.81a16.3,16.3,0,0,0-16.3-16.3H158.1c0-20.13-.06-8-.06-49.92A10,10,0,0,0,142,341.74c-1.77,1.35.68-1.9-33.49,48.56a5.63,5.63,0,0,0,4.61,8.85h24.76v54.58H94.47a48,48,0,0,1-47.95-47.94V388.87a48,48,0,0,1,9.06-28.06L105.7,282.6a83.7,83.7,0,0,1,67.85-34.7h161.7a83.66,83.66,0,0,1,67.84,34.7l51.33,78.21A48,48,0,0,1,463.47,388.87Z"></path><path fill="#f5f5f5" d="M209.57,247.9v1.41a45.13,45.13,0,1,0,90.25,0V247.9Z"></path><path d="M335.25,247.9H173.55A83.5,83.5,0,0,0,142,254.1v87.64A10,10,0,0,1,158,349.59c0,34.17.06,31.8.06,49.92H187a16.3,16.3,0,0,1,16.3,16.3v21.64a16.3,16.3,0,0,1-16.3,16.3H158v12.51h50.57V269.63a87.14,87.14,0,0,0,91.74-.43V466.26h50.41V349.59A10,10,0,0,1,367,341.86v-87.7A83.77,83.77,0,0,0,335.25,247.9Z" style="mix-blend-mode:multiply" fill="url(#a)"></path><path fill="#5e6175" d="M353.76,466.26h-6V349.59a13,13,0,0,1,23.6-7.41L404,388.58a8.63,8.63,0,0,1-7.08,13.57H374v48.59h41.52a45,45,0,0,0,45-44.95V388.88a44.7,44.7,0,0,0-8.5-26.31L400.62,284.3a80.88,80.88,0,0,0-65.37-33.4H173.54a80.83,80.83,0,0,0-65.35,33.39L58,362.57a44.76,44.76,0,0,0-8.49,26.31v16.91a45,45,0,0,0,44.95,44.95h40.38V402.15H113.08A8.63,8.63,0,0,1,106,388.59l31.42-46.38A13,13,0,0,1,161,349.59c0,36.57.06,40.2.06,46.92H187a19.32,19.32,0,0,1,19.3,19.3v21.64a19.32,19.32,0,0,1-19.3,19.3H161v9.51h-6V450.75h32a13.31,13.31,0,0,0,13.3-13.3V415.81a13.31,13.31,0,0,0-13.3-13.3H155.1c0-14.24-.06-16.16-.06-52.92a7,7,0,0,0-12.68-4L111,392a2.62,2.62,0,0,0,2.13,4.16h27.77v60.59H94.47a51,51,0,0,1-50.95-50.95V388.88a50.64,50.64,0,0,1,9.58-29.75l50.17-78.28a86.87,86.87,0,0,1,70.27-36H335.25a86.84,86.84,0,0,1,70.27,36c.76,1.1-1.75-2.67,51.37,78.26a50.74,50.74,0,0,1,9.59,29.77v16.91a51,51,0,0,1-51,50.95H368V396.15h28.9a2.62,2.62,0,0,0,2.16-4.13l-32.63-46.4a7,7,0,0,0-12.68,4Z"></path><path fill="#f5f5f5" d="M254.13,262.15a71.1,71.1,0,0,1-71.1-71.1V155.38a71.1,71.1,0,0,1,142.2,0v35.67A71.1,71.1,0,0,1,254.13,262.15Z"></path><path fill="#5e6175" d="M254.13,265.15a74.18,74.18,0,0,1-74.1-74.1V155.38a74.1,74.1,0,0,1,148.2,0v35.67A74.18,74.18,0,0,1,254.13,265.15Zm0-177.87a68.18,68.18,0,0,0-68.1,68.1v35.67a68.1,68.1,0,0,0,136.2,0V155.38A68.18,68.18,0,0,0,254.13,87.28Z"></path><path fill="#f5f5f5" d="M340.64 170.4v10a15.07 15.07 0 01-4.42 10.68l-4.82 4.82a14.89 14.89 0 01-6.31 3.77c.21-3.17.14-1.57.14-44.41A15.11 15.11 0 01340.64 170.4zM183.17 199.65a15.05 15.05 0 01-6.2-3.74l-4.82-4.82a15.07 15.07 0 01-4.42-10.68v-10A15.11 15.11 0 01183 155.27C183 198.59 183 196.52 183.17 199.65z"></path><path fill="#5e6175" d="M321.82 203.79c.55-8.54.41-.59.41-51.52h3.3a18.14 18.14 0 0118.11 18.13v10a18.14 18.14 0 01-5.31 12.81l-4.8 4.81C329.78 201.76 326.34 202.44 321.82 203.79zm6.41-45.22v36.15c.77-.6.67-.54 5.87-5.75a12.11 12.11 0 003.54-8.56v-10A12.15 12.15 0 00328.23 158.57zM186.45 203.78c-9.38-2.85-8.65-2.78-16.42-10.58a18.09 18.09 0 01-5.3-12.79v-10a18.14 18.14 0 0118.11-18.13H186C186 203.23 185.89 195.24 186.45 203.78zM180 158.6a12.14 12.14 0 00-9.3 11.8v10a12.14 12.14 0 003.53 8.55c5.14 5.14 5.08 5.12 5.77 5.68z"></path><path fill="#5e6175" d="M332.86,123.24v34H284.31c-12.62,0-25-7.44-30.18-21.59A31.89,31.89,0,0,1,224,157.21h-48.5v-34A54.2,54.2,0,0,1,229.65,69a34.2,34.2,0,0,1,24.49,10.33A34.18,34.18,0,0,1,278.62,69,54.2,54.2,0,0,1,332.86,123.24Z"></path><path fill="#5e6175" d="M335.86,160.21H284.31a35,35,0,0,1-30.18-17.4A34.88,34.88,0,0,1,224,160.21h-51.5v-37A57.27,57.27,0,0,1,229.65,66a37.39,37.39,0,0,1,24.49,9.21A37.35,37.35,0,0,1,278.62,66a57.27,57.27,0,0,1,57.24,57.2ZM254,126.61l3.15,8.62a29,29,0,0,0,27.13,19h45.55v-31A51.26,51.26,0,0,0,278.66,72a31.36,31.36,0,0,0-22.37,9.43l-2.08,2.13L252,81.46A31.31,31.31,0,0,0,229.65,72a51.26,51.26,0,0,0-51.2,51.2v31H224a28.89,28.89,0,0,0,27.34-19.56Z"></path><rect width="21.22" height="6" x="440.56" y="284.56" fill="#5e6175" transform="rotate(-45 451.17 287.559)"></rect><rect width="21.22" height="6" x="454.78" y="309.56" fill="#5e6175"></rect><rect width="6" height="21.22" x="424.45" y="262.15" fill="#5e6175"></rect><path fill="#5e6175" d="M42.05,325a9.07,9.07,0,1,1,8.72-11.57h0A9.07,9.07,0,0,1,42.05,325Zm0-12.13A3.06,3.06,0,1,0,45,315.1h0A3.06,3.06,0,0,0,42.07,312.88Z"></path><path fill="#f5f5f5" d="M208.36 247.9a46.32 46.32 0 0024.72 41.19 41 41 0 0121.61 36.34 75 75 0 01-75-75.05V247.9zM301.33 247.9a46.3 46.3 0 01-24.72 41.19A41 41 0 00255 325.43a75.06 75.06 0 0075.05-75.05V247.9z"></path><path fill="#5e6175" d="M257.69,328.43h-3a78.14,78.14,0,0,1-78-78.05V244.9h34.71v3.2a43.26,43.26,0,0,0,23.12,38.34,43.86,43.86,0,0,1,23.21,39Zm-75-77.53a72.13,72.13,0,0,0,68.92,71.46,37.74,37.74,0,0,0-19.89-30.61,49.24,49.24,0,0,1-26.24-40.85Z"></path><path fill="#5e6175" d="M255,328.43h-3v-3a43.86,43.86,0,0,1,23.21-39,43.26,43.26,0,0,0,23.12-38.34v-3.2h34.72v5.48A78.15,78.15,0,0,1,255,328.43Zm49.25-77.53A49.25,49.25,0,0,1,278,291.75a37.73,37.73,0,0,0-19.9,30.61A72.13,72.13,0,0,0,327,250.9Z"></path><path fill="#e1830e" d="M192.37 251.67V466.25H158.2V251.67a11.84 11.84 0 0111.71-12h10.75A11.85 11.85 0 01192.37 251.67zM350.75 251.67V466.25H316.58V251.67a11.85 11.85 0 0111.71-12H339A11.84 11.84 0 01350.75 251.67z"></path><path fill="#5e6175" d="M195.37 466.25h-6V251.67a8.86 8.86 0 00-8.71-9H169.91a8.86 8.86 0 00-8.71 9V466.25h-6V251.67a14.86 14.86 0 0114.71-15h10.75a14.86 14.86 0 0114.71 15zM353.75 466.25h-6V251.67a8.86 8.86 0 00-8.71-9H328.29a8.86 8.86 0 00-8.71 9V466.25h-6V251.67a14.86 14.86 0 0114.71-15H339a14.86 14.86 0 0114.71 15z"></path><path fill="#f5f5f5" d="M138 399.15l8.18-26a12.06 12.06 0 0112.06 12.07V399.5h28.93a16.3 16.3 0 0116.3 16.3v21.65a16.3 16.3 0 01-16.3 16.3H138C138 397.8 137.89 399.15 138 399.15zM371 399.15l-8.18-26a12.06 12.06 0 00-12.07 12.07V399.5H321.84a16.31 16.31 0 00-16.31 16.3v21.65a16.31 16.31 0 0016.31 16.3H371C371 397.8 370.91 399.15 371 399.15z"></path><path fill="#5e6175" d="M187.16 456.75H135V398.69l9-28.54h2.2a15.09 15.09 0 0115.07 15.07V396.5h25.92a19.32 19.32 0 0119.3 19.3v21.65A19.32 19.32 0 01187.16 456.75zm-46.17-6h46.17a13.31 13.31 0 0013.3-13.3V415.8a13.31 13.31 0 00-13.3-13.3H155.24V385.22a9.07 9.07 0 00-6.94-8.81L141 399.61zM374 456.75H321.83a19.32 19.32 0 01-19.29-19.3V415.8a19.32 19.32 0 0119.29-19.3h25.93V385.22a15.09 15.09 0 0115.07-15.07H365l9 28.54zM321.83 402.5a13.31 13.31 0 00-13.29 13.3v21.65a13.31 13.31 0 0013.29 13.3H368V399.61l-7.31-23.2a9.07 9.07 0 00-6.94 8.81V402.5z"></path><rect width="6" height="140.83" x="252" y="325.43" fill="#5e6175"></rect><circle cx="344.83" cy="121.35" r="16.55" fill="#5e6175" transform="rotate(-58.67 344.846 121.34)"></circle><circle cx="361.66" cy="140.48" r="16.55" fill="#5e6175" transform="rotate(-58.67 361.672 140.478)"></circle><circle cx="373.28" cy="166.19" r="16.55" fill="#5e6175" transform="rotate(-58.67 373.287 166.182)"></circle><path fill="#5e6175" d="M85.33 270.9a11.74 11.74 0 1111.3-15h0A11.75 11.75 0 0185.33 270.9zm0-17.46a5.73 5.73 0 105.49 4.14h0A5.71 5.71 0 0085.37 253.44zM390.79 209.53H357.85V194a16.47 16.47 0 0132.94 0z"></path><circle cx="161.34" cy="121.35" r="16.55" fill="#5e6175" transform="rotate(-31.33 161.33 121.343)"></circle><circle cx="144.51" cy="140.48" r="16.55" fill="#5e6175" transform="rotate(-31.33 144.504 140.472)"></circle><circle cx="132.9" cy="166.19" r="16.55" fill="#5e6175" transform="rotate(-31.33 132.891 166.179)"></circle><path fill="#5e6175" d="M115.38,209.53h32.94V194a16.47,16.47,0,1,0-32.94,0Z"></path><path fill="#a9afc4" d="M315.58,62.17a48,48,0,0,0-4.22-3.72l3.69-4.74a53.08,53.08,0,0,1,4.77,4.22Zm-121-1.78-4-4.48a52.69,52.69,0,0,1,5-3.93L199,56.91A43.62,43.62,0,0,0,194.6,60.39Zm57.62-5.84.62-6a12.29,12.29,0,0,0,4.77-.43l1.72,5.75A18.1,18.1,0,0,1,252.22,54.55Zm51.2-1.08a45.51,45.51,0,0,0-5.19-2.18l2-5.66a52.7,52.7,0,0,1,5.87,2.45Zm-96.2-1.08-2.34-5.53a52.72,52.72,0,0,1,6-2.12l1.65,5.77A43.48,43.48,0,0,0,207.22,52.39Zm34.86-1.49a28.73,28.73,0,0,0-5.19-1.59l1.2-5.88a35.39,35.39,0,0,1,6.27,1.92ZM268.54,50l-1.75-5.74A36.12,36.12,0,0,1,273.2,43l.67,6A29.51,29.51,0,0,0,268.54,50Zm20.58-.89a48.09,48.09,0,0,0-5.62-.39l.05-6a54,54,0,0,1,6.35.44Zm-67.37-.27-.44-6c2.27-.17,3.68-.14,6.22-.14v6C225.14,48.74,223.81,48.71,221.75,48.86Z"></path></g></svg>