<svg xmlns="http://www.w3.org/2000/svg" enable-background="new 0 0 512 512" viewBox="0 0 512 512" id="teacher"><path fill="#979700" d="M139.65,464H8c-4.418,0-8-3.582-8-8V112c0-4.418,3.582-8,8-8h185.64h124.72h163.583l20.943,2.987
		c4.418,0,1.605,2.308,1.605,6.726v336.994c0,4.418,1.438,9.172-2.981,9.172L482.478,464H372.35H139.65z"></path><path fill="#7c7c00" d="M512,112v344c0,4.42-3.58,8-8,8h-24c4.42,0,8-3.58,8-8V112c0-4.42-3.58-8-8-8h24
		C508.42,104,512,107.58,512,112z"></path><path fill="#e581a9" d="M320.299,346.11c3.35,1.88,6.56,4.04,9.58,6.45c12.66,10.1,15.317,15.51,18.917,31.3l31.846,108.091
		c0.58,2.39,0.04,4.91-1.48,6.84c-1.52,1.92-3.84,3.05-6.29,3.05L355.41,512h-9.23l-10.91-8.55l-5.58,8.55H264l-8.3-7.18L248,512
		h-65.62l-8.54-6.72L165.9,512H128c-2.45,0-4.77-1.13-6.29-3.05c-1.52-1.93-2.06-4.45-1.48-6.84l28.69-118.25
		c3.6-15.79,12.56-30.06,25.22-40.16c3.05-2.43,6.28-4.6,9.66-6.49l32.385,20.172l75.057-10.49L320.299,346.11z"></path><path fill="#ffddce" d="M240,352h24l24-8h5.04c4.418,0,8-3.582,8-8c0-4.262-11.71-5.74-15.913-5.981
		c-1.853-4.777-3.028-8.145-4.236-17.085c-1.533-11.339-1.676-22.931-0.424-34.454c0.031-0.287,0.047-0.585,0.047-0.874
		c0-4.418,4.795-10.006,0.377-10.006h-49.78c-4.418,0-8,3.592-8,8.01c0,0.289,0.016,0.577,0.047,0.864
		c1.251,11.523,1.109,23.115-0.424,34.455c-1.208,8.94-2.383,12.308-4.236,17.085c-4.203,0.24-7.536,3.724-7.536,7.987
		c0,4.418,3.582,8,8,8H224L240,352z"></path><path fill="#ffccbd" d="M301.04,336c0,4.42-3.58,8-8,8H288l-6.19,2.06c0.18-0.66,0.27-1.35,0.27-2.06
		c0-4.26-3.33-7.75-7.54-7.99c-1.85-4.77-3.02-8.14-4.23-17.08c-1.54-11.34-1.68-22.93-0.43-34.46c0.03-0.28,0.05-0.58,0.05-0.87
		c0-4.42-3.58-8-8-8h-38.82c0.01-4.42,3.58-8,8-8h49.78c4.42,0,8,3.58,8,8c0,0.29-0.02,0.59-0.05,0.87
		c-1.25,11.53-1.11,23.12,0.43,34.46c1.21,8.94,2.38,12.31,4.23,17.08C297.71,328.25,301.04,331.74,301.04,336z"></path><path fill="#ad774e" d="M296.363,48.898c0,13.35,2.017,25.292-7.783,34.342c-1.54,1.42-3.49,2.12-5.43,2.12
		c-2.15,0-4.3-0.87-5.88-2.57c-1.42-1.54-2.11-3.49-2.11-5.43h-38.32c0,1.94-0.69,3.89-2.11,5.43c-3,3.24-8.06,3.45-11.31,0.45
		C213.62,74.19,208,61.35,208,48c0-5.82,1.04-11.39,2.94-16.55c0.956-2.596,11.692,2.914,13.06,0.55
		c1.336-2.308-6.705-12.495-5.02-14.54c7.09-8.57,17.089-14.645,28.469-16.698c2.776-0.501,7.78,2.415,10.698,2.415
		c16.78,0,23.914,8.794,32.484,21.874C291.12,25.794,295.552,31.23,296,32c2.235,3.845-0.202,2.232,0.898,6.656
		C297.808,42.356,296.363,44.918,296.363,48.898z"></path><path fill="#c79878" d="M295.713,35.14c-7.855,4.298-11.475,10.03-23.713,11.938c-3.965,0.618-8.113,0.972-12.41,0.972
		c-8.98,0-18.62-1.54-28.64-5.46c-7.02-2.72-13.73-6.46-20.01-11.14c1.89-5.13,4.63-9.85,8.04-13.99
		c5.57,4.37,11.54,7.8,17.78,10.23c12.721,4.97,24.788,5.133,35.24,3.125c9.695-1.862,15.194-1.889,21.344-5.382
		C296.274,29.883,294.393,29.83,295.713,35.14z"></path><path fill="#895d3c" d="M304,48c0,13.35-5.62,26.19-15.42,35.24c-1.54,1.42-3.49,2.12-5.43,2.12c-2.15,0-4.3-0.87-5.88-2.57
		c-1.42-1.54-2.11-3.49-2.11-5.43h-18.03c8.38-7.98,13.58-18.79,14.66-30.25c0.14-1.48,0.21-2.97,0.21-4.47
		c0-3.98-0.49-7.85-1.4-11.55c0-0.01,0-0.01-0.01-0.02c-1.32-5.3-3.51-10.26-6.44-14.7c-4.23-6.44-9.96-11.81-16.7-15.6
		C250.23,0.26,253.08,0,256,0c16.78,0,31.58,8.65,40.15,21.73c2.93,4.45,5.13,9.41,6.45,14.72C303.51,40.15,304,44.02,304,48z"></path><path fill="#ad774e" d="M271.79,47.11c0.14-1.48,0.21-2.97,0.21-4.47c0-3.98-0.49-7.85-1.4-11.55c0-0.01,0-0.01-0.01-0.02
		c10.3-1.76,19.11-5.68,25.56-9.34c2.93,4.45,5.13,9.41,6.45,14.72C294.7,40.77,284.12,45.22,271.79,47.11z"></path><polygon fill="#d24380" points="264 344.77 264 512 248 512 248 344.77 256 348.01"></polygon><path fill="#e3eaee" d="M316.27,364.21l-20.96,47.05c-2.08,5.03-9.21,6.35-12.97,2.4L264,395.31l-8-8l-8,8l-18.34,18.35
		c-3.75,3.95-10.9,2.63-12.97-2.41l-32.89-74.04c0.67-0.38,1.35-0.74,2.02-1.09c9.49-4.93,20.03-7.72,30.76-8.08
		c0.64-0.02,1.28-0.03,1.92-0.03l9.61,3.69l19.89,8.07l8,3.24l8-3.24l2.17-0.88l8.96-3.57c5.24,1.37,15.546-1.886,20.346,0.614
		c0.68,0.36,3.236,3.87,3.906,4.25c3.35,1.88,6.496-0.117,9.516,2.293C314.458,346.918,312.28,358.38,316.27,364.21z"></path><path fill="#d24380" d="M390.29,508.95c-1.52,1.92-3.84,3.05-6.29,3.05h-28.59c0.63-1.53,0.76-3.24,0.36-4.89l-28.69-118.25
		c-2.02-8.85-5.72-17.22-10.81-24.65l12.01-26.96c3.35,1.88,6.56,4.04,9.58,6.45c12.66,10.1,21.62,24.37,25.22,40.16l28.69,118.25
		C392.35,504.5,391.81,507.02,390.29,508.95z"></path><path fill="#c3d1db" d="M328.28,337.25l-12.01,26.96c-3.99-5.83-8.85-11.07-14.41-15.51c-3.02-2.41-6.23-4.57-9.58-6.45
		c-0.67-0.38-1.34-0.74-2.02-1.1c-4.8-2.5-10.632-4.164-15.872-5.534l19.112-7.606c0.64,0,1.28,0.01,1.92,0.03
		c10.76,0.36,21.34,3.16,30.84,8.11C326.94,336.51,327.61,336.87,328.28,337.25z"></path><path fill="#d24380" d="M199.76 441.93L182.38 512H165.9l18.34-73.93c1.06-4.28 5.4-6.9 9.69-5.83C198.21 433.3 200.83 437.64 199.76 441.93zM346.18 512h-16.49l-17.45-70.07c-1.07-4.28 1.54-8.62 5.83-9.69 4.28-1.07 8.62 1.54 9.69 5.83L346.18 512z"></path><path fill="#ffddce" d="M192,175.91c-0.049-4.383-3.616-7.91-8-7.91h-16c-6.403,0-12.429,2.491-16.986,7.033
		C146.491,179.571,144,185.597,144,192c0,13.234,10.766,24,24,24h16.36c2.137,0,4.186-0.855,5.688-2.375s2.335-3.578,2.311-5.715
		L192,175.91z"></path><path fill="#ffccbd" d="M360.967,175.013C356.429,170.491,350.403,168,344,168h-16c-4.418,0-8,3.582-8,8
		c0,4.388,3.534,7.947,7.91,7.995L327.73,200h-0.09c-4.418,0-8,3.582-8,8s3.582,8,8,8H344c13.234,0,24-10.766,24-24
		C368,185.597,365.509,179.571,360.967,175.013z"></path><path fill="#ffdd46" d="M184,264c-17.645,0-32-14.355-32-32s14.355-32,32-32c0.343,0,0.686,0.009,1.027,0.038
		c4.403,0.368,7.673,4.236,7.305,8.639c-0.361,4.312-4.078,7.541-8.369,7.323c-8.832,0.046-15.963,7.206-15.963,16
		c0,8.823,7.178,16,16,16c3.878,0,7.62-1.413,10.537-3.977c3.318-2.918,8.373-2.594,11.291,0.724s2.594,8.373-0.724,11.291
		C199.264,261.172,191.77,264,184,264z M183.693,215.982c0.002,0,0.005,0,0.007,0C183.698,215.983,183.695,215.982,183.693,215.982z
		"></path><path fill="#fcbe00" d="M328,264c-7.77,0-15.264-2.828-21.103-7.963c-3.318-2.918-3.642-7.973-0.724-11.291
		s7.973-3.642,11.291-0.724C320.38,246.587,324.122,248,328,248c8.822,0,16-7.177,16-16c0-8.809-7.155-15.978-15.959-16
		c-4.29,0.224-8.012-3.009-8.373-7.323c-0.368-4.403,2.902-8.271,7.305-8.639c0.341-0.029,0.684-0.038,1.027-0.038
		c17.645,0,32,14.355,32,32S345.645,264,328,264z M328.307,215.982c-0.003,0-0.006,0-0.009,0.001
		C328.301,215.983,328.304,215.982,328.307,215.982z"></path><path fill="#ffccbd" d="M326.707,161.561l-4.127,32.102c0,48.52-21.699,87.592-65.809,87.592
		c-12.274,0-24.885,3.733-35.604-1.976c-8.075-4.301-15.512-10.132-22.017-17.359C184.22,245.34,176,223.35,176,200v-32l10.452-16
		c0-32.801,13.865-53.554,38.121-68.688c11.624-7.253,16.684-13.701,30.975-13.701c1.89,0,4.913,4.599,6.703,4.739h0.1
		c11.859,0.913,21.58-3.783,31.796,2.522c6.453,3.983,8.305,9.402,13.605,15.287c13.3,14.78,17.08,29.181,18.65,49.682
		c0.18,2.29,2.13,5.782,2.14,8.102C328.551,150.603,326.707,154.911,326.707,161.561z"></path><path fill="#ffbda9" d="M336,200c0,48.52-35.89,88-80,88c-12.35,0-24.25-3.05-35.02-8.83c3.62,0.55,7.3,0.83,11.02,0.83
		c44.11,0,80-39.48,80-88c0-17.456,0-28.658-0.001-35.86c-0.001-9.462,4.166-12.019,4.16-12.78
		c-0.14-23.09-10.137-46.389-24.917-62.819c-6.43-7.14-16.465-0.314-24.535-4.624c9.953,1.509,18.755-4.405,27.439,0.955
		c6.454,3.983,9.376,9.862,14.675,15.745c14.78,16.43,17.593,34.693,17.732,57.783c0.005,0.658,9.443,3.618,9.445,10.269
		C336,167.562,336,179.445,336,200z"></path><path fill="#ad774e" d="M336,160.67c-7.98-1.18-16.28-2.16-24-4.53c-7.4-2.19-13.93-5.11-20.07-8.65
		c-4.59-2.65-8.97-5.64-13.31-8.92c-1.77,0.84-3.56,1.67-5.35,2.47c-8.68,3.92-17.56,7.48-26.53,10.6
		c-20.35,7.08-50.13,13.44-70.74,16.36v-16c0-32.783,16.382-61.439,40.614-76.577c0.014-0.009-0.084-0.262-0.07-0.271
		c0.146-0.091-0.079-0.735,0.068-0.825c9.324-5.731,20.276-8.671,31.408-9.886c2.63-0.29,5.29-0.44,7.98-0.44
		c1.89,0,3.75,0.07,5.54,0.21h0.1c1.59,0.12,3.16,0.3,4.73,0.53c0.2,0.03,0.4,0.06,0.6,0.09h0.01l26.25,12.35
		c9.94,1.5,3.891,9.052,4.891,8.182c0.01-0.01,5.379,4.782,5.389,4.772c20.19,12.5,18.129,16.766,23.159,40.586
		c0.02,0.08,0.678,4.047,0.688,4.127c0.71,3.64,0.895,4.151,1.185,7.911c0.18,2.29,2.933,3.986,2.943,6.306
		C331.494,149.724,336,154.02,336,160.67z"></path><path fill="#895d3c" d="M312 156.14c2.3-38.53-11.9-73-45.02-91.31h-.01c-.01-.01-.02-.01-.03-.02 10.41 1.58 19.88 5.21 28.24 10.39 20.19 12.5 33.94 34.07 38.97 57.89.02.08.04.17.05.25.71 3.64 1.21 7.35 1.5 11.11.18 2.29.28 4.59.29 6.91.01.66.01 2.66.01 9.31C328.02 159.49 319.72 158.51 312 156.14zM232.005 192.01c-4.418 0-8.005-3.587-8.005-8.005s3.586-8.005 8.005-8.005 8.005 3.587 8.005 8.005S236.423 192.01 232.005 192.01zM279.995 192.01c-4.418 0-8.005-3.587-8.005-8.005s3.586-8.005 8.005-8.005 8.005 3.587 8.005 8.005S284.414 192.01 279.995 192.01z"></path><path fill="#d24380" d="M256,240.01c-13.921,0-24.02-6.015-28.8-9.6c-3.535-2.651-4.251-7.665-1.6-11.2
		c2.65-3.535,7.665-4.251,11.2-1.6c3.187,2.39,9.919,6.4,19.2,6.4c3.983,0,11.775-0.832,19.2-6.4c3.535-2.651,8.549-1.934,11.2,1.6
		c2.651,3.535,1.935,8.549-1.6,11.2C273.663,238.763,261.976,240.01,256,240.01z"></path><path fill="#e3eaee" d="M448 224c-4.418 0-8-3.582-8-8v-56h-11.2c-4.418 0-8-3.582-8-8s3.582-8 8-8H448c4.418 0 8 3.582 8 8v64C456 220.418 452.418 224 448 224zM464 328c-.008 0-.016 0-.024 0l-37.247-.111c-2.123-.006-4.156-.856-5.652-2.362s-2.332-3.545-2.324-5.668l.009-2.345c.008-2.084.829-4.083 2.288-5.571.06-.063 7.731-8.043 25.271-32.404 3.315-4.604 5.454-8.7 6.36-12.182l.223-1.693c-.246-5.369-4.916-9.665-10.621-9.665-5.091 0-9.482 3.442-10.441 8.185-.875 4.331-5.091 7.133-9.426 6.257-4.331-.875-7.132-5.095-6.257-9.426 2.46-12.177 13.447-21.016 26.124-21.016 14.685 0 26.631 11.713 26.631 26.111 0 .349-.023.697-.068 1.042l-.36 2.738c-.036.274-.086.545-.15.813-1.335 5.598-4.374 11.716-9.031 18.184-7.389 10.263-13.107 17.742-17.331 23.046l22.05.066c4.418.013 7.989 3.605 7.976 8.024C471.987 324.434 468.407 328 464 328z"></path></svg>