<svg xmlns="http://www.w3.org/2000/svg" viewBox="0 0 100.418 237.085" id="thinking"><path d="M44.628 55.522c.528 1.337.47 2.693-.167 3.818L21.676 99.664V123.8l-5.804 100.206c-.395 6.819 4.813 12.663 11.628 13.057 6.817.395 12.664-4.809 13.059-11.628l5.265-90.889h5.796l5.265 90.889c.395 6.819 6.243 12.022 13.059 11.628 6.815-.395 12.023-6.239 11.628-13.057l-5.803-100.189v-49.21c4.519 9.211 8.59 27.964 6.516 63.416a8 8 0 0 0 6.717 8.365v5.438h-6.917v40.333h18.333v-40.333h-6.917v-6.025a7.993 7.993 0 0 0 4.755-6.845c2.472-42.247-2.813-69.811-15.705-81.925-5.155-4.844-10.2-6.001-13.171-6.21a7.794 7.794 0 0 0-1.341-.124h-27.73c1.996 1.428 3.647 3.123 4.319 4.825zm4.094 69.887-9.5-12 5.471-40.321c1.297.486 2.662.74 4.027.739h.008a11.46 11.46 0 0 0 4.021-.74l5.473 40.322-9.5 12zm3.799-64.5 1.9 7.5-.289.456a8.438 8.438 0 0 1-5.412 1.962 8.438 8.438 0 0 1-5.408-1.958l-.292-.46 1.9-7.5h7.601zM32.994 38.583c1.201-1.045 2.528-1.959 4.01-2.635a4.765 4.765 0 0 1 1.988-.433 4.815 4.815 0 0 1 4.369 2.807 4.771 4.771 0 0 1 .131 3.673 4.747 4.747 0 0 1-1.443 1.998A22.484 22.484 0 0 0 48.722 45c12.428 0 22.5-10.073 22.5-22.5S61.15 0 48.722 0c-12.426 0-22.5 10.073-22.5 22.5 0 6.304 2.595 11.998 6.772 16.083z"></path><path d="M.072 101.861a7.796 7.796 0 0 0-.051.526c-.007.096-.016.191-.019.286-.005.152-.002.304.002.456.003.119.003.237.011.355.008.122.024.242.038.363.016.143.031.286.055.427.017.099.04.196.061.294.032.156.064.312.105.464.026.094.058.187.087.28.047.15.092.3.147.446.041.109.09.215.136.322.053.124.104.25.163.371.064.131.137.258.208.386.052.092.1.186.155.276.087.142.183.278.278.415.05.072.098.146.151.217.1.133.209.261.318.388.06.07.116.141.178.209.101.11.21.215.318.32.082.08.163.162.249.239.092.082.189.158.285.237.114.093.227.186.347.272.08.058.164.112.247.168.143.096.287.19.437.277.027.016.052.035.079.05.039.022.079.036.118.057.224.122.455.233.693.334.079.034.157.068.236.099.242.094.491.176.746.246.056.016.11.037.166.051.264.067.534.122.809.162.019.003.038.002.057.004a8.04 8.04 0 0 0 1.103.083l.009-.001.008.001a7.92 7.92 0 0 0 1.122-.088c.3-.043.596-.099.886-.175l.044-.01c.309-.083.61-.186.904-.304.059-.023.116-.05.175-.075.245-.105.483-.221.715-.349.053-.029.107-.055.159-.085.257-.149.503-.314.742-.491.073-.054.143-.111.214-.168.195-.155.383-.319.564-.492.048-.046.098-.088.145-.135.22-.221.424-.458.617-.705.041-.052.08-.106.12-.159.213-.286.411-.584.586-.899l4.321-7.648 23.14-40.952c1.458-2.581-4.33-6.968-8.956-8.418 1.557-2.925 3.764-5.94 6.528-7.201a2.5 2.5 0 0 0-2.075-4.549c-8.089 3.689-11.56 15.795-11.703 16.309l-.004.022-12.855 22.75-.852-3.168L24.11 53.483c.104-.353.298-.97.572-1.74a7.957 7.957 0 0 0-3.251 1.806c-.672.618-16.518 15.502-21.351 48.223-.004.03-.004.059-.008.089z"></path></svg>